Coordinates
version=1
nRows=10
nColumns=34
inDegrees=yes

Units are S.I. units (second, meters, Newtons, ...)
If the header above contains a line with 'inDegrees', this indicates whether rotational values are in degrees (yes) or radians (no).

endheader
time	pelvis_tilt	pelvis_list	pelvis_rotation	pelvis_tx	pelvis_ty	pelvis_tz	hip_flexion_r	hip_adduction_r	hip_rotation_r	knee_angle_r	ankle_angle_r	subtalar_angle_r	mtp_angle_r	hip_flexion_l	hip_adduction_l	hip_rotation_l	knee_angle_l	ankle_angle_l	subtalar_angle_l	mtp_angle_l	lumbar_extension	lumbar_bending	lumbar_rotation	arm_flex_r	arm_add_r	arm_rot_r	elbow_flex_r	pro_sup_r	arm_flex_l	arm_add_l	arm_rot_l	elbow_flex_l	pro_sup_l
      1.53333330	      2.23029005	      4.78212965	    -20.22427752	      0.05503412	      0.99492473	      0.02540729	     -2.39731803	     -5.62765870	    -12.42562557	      6.72241450	     10.06581989	     -6.02216768	      0.00000000	      3.14725804	     -6.15488668	    -10.07025535	      9.32980639	     11.45073491	     -4.07826724	      0.00000000	    -10.85364055	      0.28902566	      7.07144457	     11.97057722	    -16.04823138	     34.49654567	     20.07860199	    118.11648740	      7.80953166	    -13.93338602	     30.24382766	     20.39748770	    115.08117110
      1.55000000	      2.18601820	      4.77508991	    -20.21451977	      0.05513466	      0.99493195	      0.02502007	     -2.32716740	     -5.63223738	    -12.43357263	      6.76232033	     10.03101085	     -5.99385042	      0.00000000	      3.18928211	     -6.15498973	    -10.04546903	      9.31936540	     11.45104630	     -4.06857129	      0.00000000	    -10.89450982	      0.41260829	      7.26460775	     11.85300967	    -16.31485102	     34.46559615	     19.92438346	    118.15912682	      7.95022249	    -13.94458857	     30.19241957	     20.82798412	    115.10629113
      1.56666670	      2.17090525	      4.78833784	    -20.28331228	      0.05563604	      0.99481397	      0.02535000	     -2.32575740	     -5.63582781	    -12.43734782	      6.76785085	     10.03080051	     -5.99596270	      0.00000000	      3.16116606	     -6.16122176	    -10.04231221	      9.33735906	     11.44875848	     -4.06728803	      0.00000000	    -10.86495390	      0.43650493	      7.20341687	     11.82902301	    -16.38641678	     34.45680466	     19.89626974	    118.16032533	      8.02875533	    -13.98580610	     30.17818772	     20.86061343	    115.10610861
      1.58333330	      2.14045573	      4.76975812	    -20.25903281	      0.05576800	      0.99473200	      0.02505876	     -2.20292230	     -5.65134612	    -12.54601566	      6.97219132	     10.01370110	     -6.06115881	      0.00000000	      3.24068620	     -6.18236077	     -9.94371401	      9.44018392	     11.45192027	     -4.03524599	      0.00000000	    -10.94948639	      0.55487485	      7.55691203	     11.76089009	    -16.74279233	     34.32826428	     19.76293956	    118.21943709	      8.29302952	    -14.05876725	     30.03729571	     21.56541410	    115.14464080
      1.60000000	      2.10023776	      4.81477367	    -20.09934022	      0.05592339	      0.99467709	      0.02454907	     -2.17562081	     -5.69452994	    -12.54172888	      6.98461479	     10.04545415	     -6.07717679	      0.00000000	      3.31415009	     -6.11913887	     -9.97488942	      9.38144664	     11.46801724	     -4.04546021	      0.00000000	    -10.98129915	      0.66402153	      7.66479085	     11.79016327	    -16.98501316	     34.25340262	     19.68289625	    118.23322965	      8.45651559	    -13.99423715	     29.97915397	     21.80860759	    115.15628962
      1.61666670	      2.06583915	      4.87206453	    -19.90885459	      0.05585218	      0.99466276	      0.02399358	     -2.13851679	     -5.74731947	    -12.60526832	      6.99568716	     10.06862640	     -6.14287580	      0.00000000	      3.42041238	     -6.04362718	     -9.90793997	      9.34717982	     11.45113582	     -3.98528154	      0.00000000	    -11.04126410	      0.73711792	      7.96459862	     11.76704016	    -17.28642352	     34.15589258	     19.53920916	    118.24772382	      8.70986296	    -13.88184395	     29.88300868	     22.16798587	    115.16514696
      1.63333330	      2.03377006	      4.94656770	    -19.73929111	      0.05596210	      0.99462949	      0.02381905	     -2.08672763	     -5.80724230	    -12.75882605	      7.04574057	     10.03532384	     -6.27676312	      0.00000000	      3.50410581	     -5.96783536	     -9.73180662	      9.34404673	     11.42610018	     -3.86609476	      0.00000000	    -11.04627969	      0.72263126	      8.39117299	     11.61534924	    -17.54628624	     33.97045026	     19.35958921	    118.27055201	      9.04619322	    -13.74985065	     29.66539145	     22.67580104	    115.17398298
      1.65000000	      1.96942050	      5.02590981	    -19.47704287	      0.05598242	      0.99459953	      0.02315578	     -2.07946983	     -5.85267046	    -12.78853031	      6.96936377	     10.06714208	     -6.32691384	      0.00000000	      3.59375083	     -5.86827079	     -9.74730425	      9.19116345	     11.44315799	     -3.84740941	      0.00000000	    -11.06380765	      0.75804696	      8.55379252	     11.60369575	    -17.84829820	     33.88030138	     19.19669183	    118.27141262	      9.38511031	    -13.44763139	     29.58709139	     23.00271271	    115.17510708
      1.66666670	      1.92113649	      5.15949723	    -19.18421251	      0.05615079	      0.99457985	      0.02298130	     -2.08179213	     -5.93290520	    -13.05032040	      6.88212855	      9.97378018	     -6.53999023	      0.00000000	      3.70897608	     -5.73415957	     -9.41004353	      9.10666804	     11.37110177	     -3.60572680	      0.00000000	    -11.04236618	      0.59615854	      9.25417480	     11.25274959	    -18.12212566	     33.68256704	     18.85710117	    118.28864245	      9.81879130	    -13.07315830	     29.27053277	     23.56269048	    115.16416612
      1.68333330	      1.84216578	      5.29393011	    -18.81913860	      0.05648267	      0.99452113	      0.02271321	     -2.11503640	     -6.00410268	    -13.24189297	      6.74449201	      9.92473217	     -6.73127595	      0.00000000	      3.82588182	     -5.58741660	     -9.17694019	      8.96074951	     11.34240991	     -3.45285803	      0.00000000	    -10.99743526	      0.48770329	      9.85892375	     10.98129702	    -18.39041568	     33.48176795	     18.55275726	    118.30313872	     10.22622622	    -12.59240981	     28.94711151	     24.09798846	    115.15297284
